<svg xmlns="http://www.w3.org/2000/svg"  viewBox="0 0 387.998 114.315">
  <g>
    <path origin="0.514528 0.514288" fill="#7d2121" d="M44 43.99970374h69.967v70.00032922H44z"/>
    <path fill="#919191" d="M88 .000008v88.00038547H0V.000008h88ZM8 79.99981626h72V8.00058522H8v71.99923104Z"/>
    <path fill="#fff" d="M88 87.99939949H44v-7.99958323h36V43.99970374h8V87.9993995Z"/>
    <g transform="matrix(1 0 0 .993984 -6 -5.963896)">
      <path fill="#7d2121" d="M136.182 70.4V50.417h2.166V70.4h-2.166Zm5.817 0V50.417h2.168v17.625h8.069V70.4h-10.237Zm11.068 0 6.297-19.983h2.331l6.707 19.983h-2.482l-1.908-6.052h-6.843L155.37 70.4h-2.303Zm4.73-8.205h5.547l-1.704-5.535c-.527-1.699-.913-3.081-1.159-4.143-.208 1.28-.503 2.553-.885 3.816l-1.799 5.862Zm11.055 8.205v-2.453l8.397-12.8c.582-.891 1.15-1.682 1.704-2.372h-9.16v-2.358h11.736v2.358l-9.187 13.864-.995 1.403h10.455V70.4h-12.95Zm15.675 0V50.417h2.168V70.4h-2.168Z" style="white-space:pre"/>
      <path fill="#919191" d="M190.896 70.4V50.417h2.167V70.4h-2.167Zm5.886 0V50.417h2.223l8.614 15.689V50.417h2.072V70.4h-2.222l-8.601-15.703V70.4h-2.086Zm16.52 0V50.417h2.222l8.615 15.689V50.417h2.072V70.4h-2.223l-8.601-15.703V70.4h-2.085Zm16.632 0V50.417h11.845v2.358h-9.678v6.121h9.064v2.345h-9.064v6.801h10.059V70.4h-12.226Zm15.156 0V50.417h2.221l8.615 15.689V50.417h2.072V70.4h-2.222l-8.6-15.703V70.4h-2.086Zm14.788 0 6.298-19.983h2.331l6.705 19.983h-2.48l-1.908-6.052h-6.843l-1.799 6.052h-2.304Zm4.73-8.205h5.548l-1.704-5.535c-.527-1.699-.914-3.081-1.159-4.143-.209 1.28-.504 2.553-.886 3.816l-1.799 5.862Zm23.035-11.778h2.181v11.545c0 1.936-.188 3.524-.566 4.764-.377 1.241-1.063 2.221-2.058 2.938-.995.718-2.26 1.077-3.796 1.077-2.163 0-3.783-.645-4.86-1.936-1.076-1.29-1.615-3.571-1.615-6.843V50.417h2.168v11.531c0 1.809.141 3.118.422 3.927.282.809.742 1.424 1.383 1.846.641.423 1.42.634 2.338.634 1.545 0 2.665-.436 3.36-1.308.695-.872 1.043-2.572 1.043-5.099V50.417Zm5.083 13.563 2.045-.218c.109 1.099.356 1.956.742 2.569.386.614.939 1.107 1.657 1.479.718.373 1.527.559 2.426.559 1.291 0 2.293-.315 3.006-.947.713-.631 1.07-1.452 1.07-2.46 0-.591-.13-1.107-.389-1.548-.259-.441-.649-.802-1.172-1.084-.523-.281-1.652-.677-3.387-1.185-1.545-.455-2.644-.914-3.298-1.377-.655-.463-1.164-1.052-1.528-1.766-.363-.713-.545-1.519-.545-2.419 0-1.617.523-2.94 1.568-3.967 1.045-1.027 2.453-1.54 4.225-1.54 1.218 0 2.283.241 3.197.723.913.481 1.622 1.172 2.126 2.072.505.899.775 1.958.811 3.176l-2.086.19c-.109-1.299-.497-2.262-1.164-2.89-.668-.627-1.607-.94-2.816-.94-1.226 0-2.162.275-2.807.824-.646.55-.968 1.261-.968 2.134 0 .809.236 1.436.708 1.881.473.446 1.536.895 3.19 1.349 1.618.446 2.753.832 3.408 1.159.999.509 1.754 1.18 2.263 2.011.508.832.762 1.824.762 2.978 0 1.145-.267 2.188-.803 3.129-.537.94-1.266 1.656-2.189 2.146-.921.491-2.032.736-3.332.736-2.026 0-3.642-.609-4.846-1.826-1.204-1.218-1.828-2.867-1.874-4.948Zm15.923 6.42V50.417h6.147c1.245 0 2.231.193 2.958.579.727.386 1.322.989 1.786 1.807.463.817.695 1.721.695 2.712 0 .918-.2 1.745-.6 2.481-.4.736-.963 1.327-1.69 1.772.954.345 1.706.933 2.256 1.765.55.831.825 1.856.825 3.074 0 1.209-.248 2.27-.743 3.183-.495.913-1.156 1.577-1.983 1.99-.828.414-1.964.62-3.408.62h-6.243Zm2.167-11.586h3.544c.927 0 1.586-.064 1.977-.191.563-.191.997-.511 1.302-.961.304-.45.456-1.061.456-1.833 0-.718-.138-1.316-.415-1.793-.278-.477-.646-.807-1.105-.988-.459-.182-1.283-.273-2.474-.273h-3.285v6.039Zm0 9.228h4.076c.899 0 1.563-.081 1.99-.245.617-.237 1.088-.625 1.411-1.165.322-.542.483-1.221.483-2.038 0-.755-.154-1.393-.463-1.916-.309-.522-.725-.904-1.248-1.145-.522-.241-1.342-.361-2.459-.361h-3.79v6.87Zm11.381 2.358 6.297-19.983h2.331l6.707 19.983h-2.482l-1.908-6.052H326.3l-1.8 6.052h-2.303Zm4.73-8.205h5.547l-1.704-5.535c-.527-1.699-.913-3.081-1.158-4.143-.209 1.28-.504 2.553-.886 3.816l-1.799 5.862Zm23.035-11.778h2.181v11.545c0 1.936-.189 3.524-.566 4.764-.377 1.241-1.063 2.221-2.058 2.938-.995.718-2.261 1.077-3.797 1.077-2.163 0-3.782-.645-4.859-1.936-1.077-1.29-1.615-3.571-1.615-6.843V50.417h2.167v11.531c0 1.809.141 3.118.423 3.927.282.809.743 1.424 1.383 1.846.641.423 1.42.634 2.338.634 1.544 0 2.664-.436 3.36-1.308.695-.872 1.043-2.572 1.043-5.099V50.417Z" style="white-space:pre"/>
    </g>
    <path fill="#919191" d="M356.625 65.565v-1.344l3.977-.008v4.25q-.914.891-1.891 1.34-.976.449-2.007.449-1.375 0-2.454-.687-1.078-.688-1.707-2.008-.628-1.32-.628-3.172 0-1.875.632-3.266.633-1.39 1.657-2.05 1.023-.66 2.421-.66 1.032 0 1.805.382.774.383 1.274 1.086.5.703.75 1.93l-1.118.375q-.226-.969-.57-1.449-.344-.481-.906-.754-.563-.274-1.266-.274-1.023 0-1.762.497-.738.496-1.187 1.542-.449 1.047-.449 2.555 0 2.297.961 3.442.961 1.144 2.5 1.144.734 0 1.504-.351.769-.352 1.222-.836v-2.133Zm5.631 4.492V61.76h1.032v1.164q.343-.648.882-1 .54-.351 1.18-.351.719 0 1.215.371.496.371.707 1.082.406-.727.934-1.09.527-.363 1.168-.363.976 0 1.539.664.562.664.562 2.125v5.695h-1.148V64.83q0-.89-.129-1.261-.129-.371-.418-.575-.289-.203-.649-.203-.742 0-1.211.59-.468.59-.468 1.856v4.82h-1.157v-5.391q0-1.031-.316-1.453-.316-.422-.871-.422-.789 0-1.246.637-.457.637-.457 2.324v4.305Zm11.977 0h-1.07V58.604h1.148v4.086q.367-.563.832-.84.465-.277 1.035-.277.797 0 1.45.476.652.477 1.042 1.445.391.969.391 2.352 0 2.109-.883 3.254-.883 1.144-2.062 1.144-.594 0-1.067-.308-.472-.309-.816-.918Zm-.016-4.211q0 1.289.235 1.93.234.64.664.976.429.336.953.336.711 0 1.262-.801.55-.8.55-2.394 0-1.633-.531-2.399-.531-.765-1.305-.765-.71 0-1.269.801-.559.8-.559 2.316Zm6.413 4.211V58.604h1.242v4.703h4.883v-4.703h1.242v11.453h-1.242v-5.398h-4.883v5.398Z" style="white-space:pre" transform="matrix(1.002413 0 0 .976731 -2.035448 -4.67392146)"/>
    <g transform="matrix(1 0 0 .993984 -7 -5.963896)">
      <path fill="#919191" d="m138.177 95.378-2.031-9.172h1.038l1.164 6.012c.123.618.232 1.243.325 1.877l.344-1.695 1.457-6.194h1.223l1.095 4.642c.267 1.131.466 2.213.598 3.247.098-.596.223-1.261.375-1.995l1.203-5.894h1.018l-2.099 9.172h-.974l-1.618-6.988-.241-1.076c-.072.4-.147.759-.223 1.076l-1.623 6.988h-1.031Zm7.702 0 2.941-9.172h1.088l3.132 9.172h-1.159l-.891-2.778h-3.195l-.84 2.778h-1.076Zm2.209-3.766h2.59l-.795-2.54c-.246-.78-.427-1.414-.542-1.902-.097.588-.235 1.172-.413 1.751l-.84 2.691Zm5.533 3.766v-9.172h1.038l4.022 7.2v-7.2h.968v9.172h-1.037l-4.017-7.207v7.207h-.974Zm7.72 0v-9.172h2.641c.654 0 1.151.057 1.491.17.445.146.831.412 1.158.8.327.388.581.877.764 1.467.182.59.274 1.29.274 2.099 0 1.038-.156 1.919-.466 2.643-.309.724-.707 1.237-1.193 1.539-.486.302-1.121.454-1.906.454h-2.763Zm1.012-1.083h1.629c.658 0 1.157-.105 1.497-.316.339-.21.6-.549.783-1.016.241-.622.362-1.366.362-2.233 0-.931-.129-1.661-.385-2.193-.257-.532-.587-.887-.99-1.066-.272-.122-.702-.183-1.292-.183h-1.604v7.007ZM136.789 108.189v-9.171h2.871c.582 0 1.042.089 1.381.266.339.178.617.454.834.829.217.375.325.79.325 1.245 0 .421-.094.801-.281 1.139-.186.338-.449.609-.789.813.446.158.797.428 1.054.81.257.382.385.852.385 1.41 0 .555-.116 1.042-.347 1.461-.231.419-.54.724-.927.913-.385.19-.916.285-1.591.285h-2.915Zm1.012-5.317h1.655c.433 0 .74-.029.923-.087.263-.088.466-.236.608-.442.142-.206.213-.487.213-.841 0-.33-.065-.604-.194-.822-.129-.22-.301-.371-.516-.455-.214-.083-.599-.125-1.155-.125h-1.534v2.772Zm0 4.235h1.903c.421 0 .73-.037.93-.112.288-.109.508-.287.658-.535.151-.249.226-.56.226-.936 0-.346-.072-.639-.216-.879-.144-.239-.338-.415-.582-.525-.244-.11-.627-.166-1.149-.166h-1.77v3.153Zm5.866-3.384c0-1.564.35-2.767 1.05-3.607.7-.84 1.572-1.261 2.616-1.261.674 0 1.29.188 1.846.564.556.375.996.921 1.321 1.636.324.715.487 1.567.487 2.556 0 1.359-.314 2.466-.943 3.321-.691.943-1.597 1.414-2.717 1.414-1.129 0-2.037-.484-2.725-1.452-.623-.876-.935-1.933-.935-3.171Zm1.044.019c0 1.13.253 2.006.76 2.63.507.623 1.124.935 1.849.935.743 0 1.365-.315 1.868-.945.503-.629.755-1.555.755-2.777 0-.788-.13-1.493-.389-2.114-.199-.476-.499-.856-.9-1.142-.402-.286-.84-.429-1.315-.429-.763 0-1.393.313-1.887.939-.494.626-.741 1.593-.741 2.903Zm7.534 4.447v-9.171h2.643c.653 0 1.149.057 1.489.17.446.145.832.412 1.158.8.327.388.581.877.764 1.467.182.59.274 1.29.274 2.098 0 1.039-.155 1.92-.465 2.644-.31.724-.708 1.237-1.193 1.539-.486.302-1.122.453-1.907.453h-2.763Zm1.013-1.082h1.63c.657 0 1.156-.105 1.495-.316.339-.21.6-.549.783-1.016.242-.622.363-1.366.363-2.233 0-.931-.129-1.662-.385-2.193-.257-.532-.587-.887-.99-1.067-.271-.121-.702-.182-1.292-.182h-1.604v7.007Zm6.746 1.082v-9.171h5.532v1.082h-4.52v2.81h4.233v1.075h-4.233v3.122h4.697v1.082h-5.709Zm7.078 0v-9.171h1.037l4.023 7.2v-7.2h.967v9.171h-1.037l-4.016-7.206v7.206h-.974ZM136.802 121.001v-9.171h2.641c.654 0 1.151.056 1.489.169.446.146.833.413 1.16.801.326.388.58.877.763 1.467.182.59.273 1.289.273 2.098 0 1.039-.154 1.92-.464 2.643-.309.724-.707 1.237-1.193 1.54-.486.302-1.121.453-1.906.453h-2.763Zm1.012-1.082h1.629c.658 0 1.157-.106 1.496-.316.34-.211.601-.549.784-1.016.241-.622.362-1.366.362-2.234 0-.93-.129-1.661-.385-2.192-.257-.532-.587-.887-.99-1.067-.272-.121-.702-.182-1.292-.182h-1.604v7.007Zm6.746 1.082v-9.171h5.531v1.082h-4.519v2.81h4.233v1.075h-4.233v3.122h4.698v1.082h-5.71Zm12.537-3.216 1.017.307c-.224 1.03-.618 1.798-1.18 2.305-.562.507-1.246.761-2.052.761-.709 0-1.315-.17-1.818-.511-.503-.339-.915-.885-1.235-1.636-.32-.75-.48-1.636-.48-2.658 0-1.009.16-1.863.48-2.562.32-.698.754-1.226 1.302-1.583.547-.356 1.158-.534 1.833-.534.738 0 1.373.226 1.903.678.531.453.902 1.117 1.114 1.993l-.993.282c-.339-1.277-1.02-1.915-2.043-1.915-.51 0-.951.128-1.324.385-.374.256-.672.656-.894 1.198-.223.542-.334 1.229-.334 2.058 0 1.255.225 2.197.675 2.825.449.627 1.047.941 1.795.941.551 0 1.027-.193 1.428-.579.401-.385.669-.97.806-1.755Zm2.245 3.216v-9.171h1.013v4.548l3.799-4.548h1.375l-3.214 3.716 3.354 5.455h-1.337l-2.724-4.642-1.253 1.464v3.178h-1.013Zm7.186 0v-9.171h5.532v1.082h-4.52v2.81h4.233v1.075h-4.233v3.122h4.698v1.082h-5.71Z" style="text-transform:uppercase;white-space:pre"/>
    </g>
  </g>
</svg>
