<svg xmlns="http://www.w3.org/2000/svg" xmlns:mydata="http://www.w3.org/2000/svg" mydata:companyname="Ilazi Innenausbau GmbH" mydata:contrastcolor="ffffff" mydata:id1="13" mydata:id2="992" mydata:layouttype="undefined" mydata:presentation="2.5" mydata:specialfontid="undefined" mydata:template="Contrast" viewBox="71.78 171.38 406.44 127.24">
  <g fill-rule="none" stroke-miterlimit="10" data-paper-data="{&quot;isGlobalGroup&quot;:true,&quot;bounds&quot;:{&quot;x&quot;:71.78031977184487,&quot;y&quot;:171.38074337715346,&quot;width&quot;:406.4393604563102,&quot;height&quot;:127.23851324569307}}" font-family="none" font-size="none" font-weight="none" style="mix-blend-mode:normal" text-anchor="none">
    <g fill-rule="nonzero" data-paper-data="{&quot;stacked&quot;:true,&quot;isPrimaryText&quot;:true}">
      <path fill="#fa3912" d="M235.49612 182.86264h7.66145v79.27933h-7.66145z" data-paper-data="{&quot;glyphName&quot;:&quot;I&quot;,&quot;glyphIndex&quot;:0,&quot;firstGlyphOfWord&quot;:true,&quot;word&quot;:1,&quot;line&quot;:1,&quot;firstGlyphOfFirstLine&quot;:true}"/>
      <path fill="#fa3912" d="M265.80881 262.14197v-79.27933h7.55041v72.06203h42.19348v7.21731z" data-paper-data="{&quot;glyphName&quot;:&quot;L&quot;,&quot;glyphIndex&quot;:1,&quot;word&quot;:1,&quot;line&quot;:1}"/>
      <path fill="#fa3912" d="M379.62017 262.14197c-1.48047-3.40509-3.22003-7.58742-5.21867-12.54701-1.99864-4.95958-4.0713-10.21526-6.21799-15.76704h-30.42372c-2.14669 5.55177-4.21935 10.80745-6.21799 15.76704-1.99864 4.95958-3.73819 9.14192-5.21867 12.54701h-7.55041c1.11035-2.66485 2.59083-6.19948 4.44142-10.60389 1.85059-4.40441 3.84923-9.23445 5.99592-14.49013s4.3674-10.71492 6.66213-16.37773c2.29473-5.66281 4.51544-11.12205 6.66213-16.37773 2.14669-5.25568 4.12682-10.06722 5.9404-14.43461 1.81358-4.3674 3.31256-7.92053 4.49694-10.65941 1.11035 2.73888 2.59083 6.29201 4.44142 10.65941 1.85059 4.3674 3.84923 9.17893 5.99592 14.43461s4.3859 10.71492 6.71765 16.37773c2.33175 5.66281 4.57096 11.12205 6.71765 16.37773 2.14669 5.25568 4.12682 10.08572 5.9404 14.49013s3.31256 7.93904 4.49694 10.60389zm-27.75887-63.51229c-1.48047 3.47911-3.23853 7.73547-5.27419 12.76908-2.03565 5.03361-4.12682 10.3263-6.2735 15.87807h25.31609c-2.22071-5.55177-4.33038-10.84447-6.32902-15.87807-1.99864-5.03361-3.73819-9.28997-5.21867-12.76908-.14805-.29609-.33311-.79575-.55518-1.49898-.22207-.70322-.40713-1.35093-.55518-1.94312-.14805.59219-.33311 1.2399-.55518 1.94312s-.40713 1.20288-.55518 1.49898z" data-paper-data="{&quot;glyphName&quot;:&quot;A&quot;,&quot;glyphIndex&quot;:2,&quot;word&quot;:1,&quot;line&quot;:1}"/>
      <path fill="#fa3912" d="M404.38109 182.86264h49.85493l-50.85425 71.95099h52.96392v7.32834h-66.17715c1.85059-2.66485 4.14532-5.97741 6.8842-9.93768 2.73888-3.96027 5.69982-8.23513 8.88284-12.8246s6.45856-9.32698 9.82664-14.21254c3.36808-4.88556 6.64362-9.60457 9.82664-14.15702 3.18302-4.55245 6.14396-8.7533 8.88284-12.60253 2.73888-3.84923 5.03361-7.03225 6.8842-9.54905h-39.08449c-2.36876 0-4.34889-.48115-5.9404-1.44346-1.59151-.96231-2.38726-2.5168-2.38726-4.66349v-3.88624h6.99524v1.44346c0 1.03633.25908 1.72105.77725 2.05416s1.40645.49966 2.66485.49966z" data-paper-data="{&quot;glyphName&quot;:&quot;Z&quot;,&quot;glyphIndex&quot;:3,&quot;word&quot;:1,&quot;line&quot;:1}"/>
      <path fill="#fa3912" d="M470.55823 182.86264h7.66145v79.27933h-7.66145z" data-paper-data="{&quot;glyphName&quot;:&quot;I&quot;,&quot;glyphIndex&quot;:4,&quot;lastGlyphOfWord&quot;:true,&quot;word&quot;:1,&quot;line&quot;:1,&quot;lastGlyphOfFirstLine&quot;:true}"/>
      <path d="M235.49612 273.10595h1.6653v17.23224h-1.6653z" data-paper-data="{&quot;glyphName&quot;:&quot;I&quot;,&quot;glyphIndex&quot;:5,&quot;firstGlyphOfWord&quot;:true,&quot;word&quot;:2,&quot;line&quot;:2,&quot;firstGlyphOfSecondLine&quot;:true}"/>
      <path d="M256.75887 273.10595v18.02869c-.46661-.56315-1.04182-1.2349-1.72564-2.01525-.68382-.78036-1.42395-1.61301-2.2204-2.49795-.79645-.88494-1.61703-1.79-2.46175-2.71516-.84472-.92517-1.66128-1.83022-2.44968-2.71516-.7884-.88494-1.50842-1.70955-2.16006-2.47382s-1.18663-1.42797-1.60496-1.99112c-.04827-.06436-.12067-.15688-.21721-.27755-.09654-.12067-.18503-.23733-.26548-.34995l.0724.77231v13.46721h-1.64117v-18.02869c.46661.59532 1.0378 1.27914 1.71357 2.05146.67577.77231 1.41189 1.5929 2.20833 2.46175.79645.86885 1.61301 1.76184 2.44968 2.67896.83667.91712 1.64519 1.80609 2.42555 2.66689.78036.86081 1.50842 1.67335 2.1842 2.43761.67577.76427 1.23087 1.42797 1.6653 1.99112.03218.08045.09654.18101.19308.30168s.18503.23733.26548.34995l-.0724-.79645v-13.34654z" data-paper-data="{&quot;glyphName&quot;:&quot;N&quot;,&quot;glyphIndex&quot;:6,&quot;word&quot;:2,&quot;line&quot;:2}"/>
      <path d="M276.35632 273.10595v18.02869c-.46661-.56315-1.04182-1.2349-1.72564-2.01525-.68382-.78036-1.42395-1.61301-2.2204-2.49795-.79645-.88494-1.61703-1.79-2.46175-2.71516-.84472-.92517-1.66128-1.83022-2.44968-2.71516-.7884-.88494-1.50842-1.70955-2.16006-2.47382s-1.18663-1.42797-1.60496-1.99112c-.04827-.06436-.12067-.15688-.21721-.27755-.09654-.12067-.18503-.23733-.26548-.34995l.0724.77231v13.46721h-1.64117v-18.02869c.46661.59532 1.0378 1.27914 1.71357 2.05146.67577.77231 1.41189 1.5929 2.20833 2.46175.79645.86885 1.61301 1.76184 2.44968 2.67896.83667.91712 1.64519 1.80609 2.42555 2.66689.78036.86081 1.50842 1.67335 2.1842 2.43761.67577.76427 1.23087 1.42797 1.6653 1.99112.03218.08045.09654.18101.19308.30168s.18503.23733.26548.34995l-.0724-.79645v-13.34654z" data-paper-data="{&quot;glyphName&quot;:&quot;N&quot;,&quot;glyphIndex&quot;:7,&quot;word&quot;:2,&quot;line&quot;:2}"/>
      <path d="M281.30395 290.33819v-17.23224h10.86065v1.49636h-9.21949v6.29918h8.2541v1.54463h-8.2541v6.34745h9.55738v1.54463z" data-paper-data="{&quot;glyphName&quot;:&quot;E&quot;,&quot;glyphIndex&quot;:8,&quot;word&quot;:2,&quot;line&quot;:2}"/>
      <path d="M310.72425 273.10595v18.02869c-.46661-.56315-1.04182-1.2349-1.72564-2.01525-.68382-.78036-1.42395-1.61301-2.2204-2.49795-.79645-.88494-1.61703-1.79-2.46175-2.71516-.84472-.92517-1.66128-1.83022-2.44968-2.71516-.7884-.88494-1.50842-1.70955-2.16006-2.47382s-1.18663-1.42797-1.60496-1.99112c-.04827-.06436-.12067-.15688-.21721-.27755-.09654-.12067-.18503-.23733-.26548-.34995l.0724.77231v13.46721h-1.64117v-18.02869c.46661.59532 1.0378 1.27914 1.71357 2.05146.67577.77231 1.41189 1.5929 2.20833 2.46175.79645.86885 1.61301 1.76184 2.44968 2.67896.83667.91712 1.64519 1.80609 2.42555 2.66689.78036.86081 1.50842 1.67335 2.1842 2.43761.67577.76427 1.23087 1.42797 1.6653 1.99112.03218.08045.09654.18101.19308.30168s.18503.23733.26548.34995l-.0724-.79645v-13.34654z" data-paper-data="{&quot;glyphName&quot;:&quot;N&quot;,&quot;glyphIndex&quot;:9,&quot;word&quot;:2,&quot;line&quot;:2}"/>
      <path d="M326.77389 290.33819c-.3218-.74013-.69991-1.64921-1.13434-2.72723-.43443-1.07802-.88494-2.2204-1.35155-3.42714h-6.61293c-.46661 1.20674-.91712 2.34912-1.35155 3.42714s-.81254 1.9871-1.13434 2.72723h-1.64117c.24135-.57923.56315-1.34753.96539-2.30487.40225-.95735.83667-2.00721 1.30328-3.14959.46661-1.14238.9493-2.32901 1.44809-3.55988.49879-1.23087.98148-2.4175 1.44809-3.55988.46661-1.14238.89701-2.18822 1.29121-3.13752s.72002-1.72161.97746-2.31694c.24135.59532.56315 1.36764.96539 2.31694.40225.9493.83667 1.99514 1.30328 3.13752.46661 1.14238.95332 2.32901 1.46015 3.55988.50683 1.23087.99355 2.4175 1.46015 3.55988.46661 1.14238.89701 2.19224 1.29121 3.14959.3942.95735.72002 1.72564.97746 2.30487zm-6.0337-13.8051c-.3218.75622-.70393 1.68139-1.1464 2.7755-.44247 1.09411-.89701 2.24454-1.36362 3.45127h5.50273c-.4827-1.20674-.94126-2.35716-1.37568-3.45127-.43443-1.09411-.81254-2.01928-1.13434-2.7755-.03218-.06436-.0724-.17297-.12067-.32582-.04827-.15285-.08849-.29364-.12067-.42236-.03218.12872-.0724.26951-.12067.42236-.04827.15285-.08849.26146-.12067.32582z" data-paper-data="{&quot;glyphName&quot;:&quot;A&quot;,&quot;glyphIndex&quot;:10,&quot;word&quot;:2,&quot;line&quot;:2}"/>
      <path d="M336.83809 290.53127c-.86885 0-1.67737-.14079-2.42555-.42236-.74818-.28157-1.3958-.6798-1.94285-1.19467-.54706-.51488-.97746-1.1464-1.29121-1.89458-.31375-.74818-.47063-1.59692-.47063-2.54622v-11.36748h1.64117v11.29508c0 .69186.11263 1.31937.33789 1.88251.22526.56315.53901 1.04182.94126 1.43602.40225.3942.8769.69991 1.42395.91712.54706.21721 1.14238.32582 1.78597.32582.6275 0 1.21478-.10861 1.76184-.32582.54706-.21721 1.02171-.52292 1.42395-.91712.40225-.3942.72002-.87287.95332-1.43602.2333-.56315.34995-1.19065.34995-1.88251v-11.29508h1.64117v11.36748c0 .9493-.15688 1.79804-.47063 2.54622-.31375.74818-.74818 1.37971-1.30328 1.89458-.5551.51488-1.20674.9131-1.95492 1.19467-.74818.28157-1.54865.42236-2.40141.42236z" data-paper-data="{&quot;glyphName&quot;:&quot;U&quot;,&quot;glyphIndex&quot;:11,&quot;word&quot;:2,&quot;line&quot;:2}"/>
      <path d="m356.74929 273.99894-.60337 1.32741c-.56315-.22526-1.18663-.41834-1.87045-.57923-.68382-.1609-1.34753-.24135-1.99112-.24135-.57923 0-1.09813.0724-1.55669.21721-.45856.14481-.84874.34593-1.17054.60337-.3218.25744-.56717.55108-.73611.88092-.16894.32984-.25342.68784-.25342 1.074 0 .46661.12872.86483.38616 1.19467.25744.32984.59532.61544 1.01366.85678.41834.24135.89299.46258 1.42395.66371.53097.20112 1.074.40627 1.6291.61544.5551.20917 1.09813.44649 1.6291.71198.53097.26548 1.00562.5913 1.42395.97746.41834.38616.75622.84472 1.01366 1.37568.25744.53097.38616 1.17456.38616 1.93078 0 .75622-.13676 1.43602-.41029 2.03939s-.66773 1.11825-1.1826 1.54463c-.51488.42638-1.1464.75622-1.89458.98953-.74818.2333-1.59692.34995-2.54622.34995-.67577 0-1.29926-.06034-1.87045-.18101-.57119-.12067-1.07802-.26548-1.52049-.43443-.44247-.16894-.82863-.34191-1.15847-.5189-.32984-.17699-.5913-.32984-.78438-.45856l.74818-1.44809c.28962.17699.61544.35398.97746.53097.36202.17699.74013.32984 1.13434.45856.3942.12872.80047.2333 1.21881.31375.41834.08045.82863.12067 1.23087.12067.43443 0 .9131-.06034 1.43602-.18101s1.00562-.31777 1.44809-.5913c.44247-.27353.81254-.62348 1.1102-1.04986.29766-.42638.44649-.94528.44649-1.55669 0-.75622-.22124-1.36764-.66371-1.83424-.44247-.46661-.99355-.86483-1.65323-1.19467-.65968-.32984-1.37568-.62348-2.148-.88092-.77231-.25744-1.48831-.55912-2.148-.90505-.65968-.34593-1.21076-.77634-1.65323-1.29121-.44247-.51488-.66371-1.1826-.66371-2.00319 0-.57923.11665-1.13836.34995-1.67737.2333-.53901.57521-1.00964 1.02573-1.41189.45052-.40225.99757-.72404 1.64117-.96539.64359-.24135 1.36764-.36202 2.17213-.36202.45052 0 .9131.0362 1.38775.10861.47465.0724.92114.1609 1.33948.26548.41834.10458.79645.21319 1.13434.32582.33789.11263.59532.20917.77231.28962z" data-paper-data="{&quot;glyphName&quot;:&quot;S&quot;,&quot;glyphIndex&quot;:12,&quot;word&quot;:2,&quot;line&quot;:2}"/>
      <path d="M362.63818 274.60231v6.34745h2.89617c1.04584 0 1.83424-.30973 2.36521-.92919.53097-.61946.79645-1.40384.79645-2.35314 0-1.07802-.3218-1.85838-.96539-2.34107-.64359-.4827-1.48027-.72404-2.51002-.72404zm0 7.7714v6.46812h2.94444c.54706 0 1.06193-.06838 1.54463-.20515.4827-.13676.90505-.33789 1.26708-.60337.36202-.26548.64762-.59935.85678-1.00159.20917-.40225.31375-.86885.31375-1.39982 0-.57923-.12067-1.07802-.36202-1.49636-.24135-.41834-.56717-.75622-.97746-1.01366-.41029-.25744-.8769-.44649-1.39982-.56717-.52292-.12067-1.05791-.18101-1.60496-.18101zm-1.64116 7.96448v-17.23224h4.03051c.80449 0 1.53256.08045 2.1842.24135.65164.1609 1.21076.41834 1.67737.77231.46661.35398.82461.81254 1.074 1.37568.24939.56315.37409 1.24696.37409 2.05146 0 .46661-.04827.9131-.14481 1.33948-.09654.42638-.24939.82058-.45856 1.1826-.20917.36202-.4827.67577-.82058.94126-.33789.26548-.75622.47063-1.25501.61544.45052.09654.88896.24939 1.31535.45856.42638.20917.80449.4827 1.13434.82058.32984.33789.59532.74416.79645 1.21881.20112.47465.30168 1.02573.30168 1.65323 0 .77231-.15285 1.44809-.45856 2.02732-.30571.57923-.71198 1.05389-1.21881 1.42395-.50683.37007-1.09009.64762-1.74977.83265-.65968.18503-1.3435.27755-2.05146.27755z" data-paper-data="{&quot;glyphName&quot;:&quot;B&quot;,&quot;glyphIndex&quot;:13,&quot;word&quot;:2,&quot;line&quot;:2}"/>
      <path d="M386.02479 290.33819c-.3218-.74013-.69991-1.64921-1.13434-2.72723-.43443-1.07802-.88494-2.2204-1.35155-3.42714h-6.61293c-.46661 1.20674-.91712 2.34912-1.35155 3.42714s-.81254 1.9871-1.13434 2.72723h-1.64117c.24135-.57923.56315-1.34753.96539-2.30487.40225-.95735.83667-2.00721 1.30328-3.14959.46661-1.14238.9493-2.32901 1.44809-3.55988.49879-1.23087.98148-2.4175 1.44809-3.55988.46661-1.14238.89701-2.18822 1.29121-3.13752s.72002-1.72161.97746-2.31694c.24135.59532.56315 1.36764.96539 2.31694.40225.9493.83667 1.99514 1.30328 3.13752.46661 1.14238.95332 2.32901 1.46015 3.55988.50683 1.23087.99355 2.4175 1.46015 3.55988.46661 1.14238.89701 2.19224 1.29121 3.14959.3942.95735.72002 1.72564.97746 2.30487zm-6.0337-13.8051c-.3218.75622-.70393 1.68139-1.1464 2.7755-.44247 1.09411-.89701 2.24454-1.36362 3.45127h5.50273c-.4827-1.20674-.94126-2.35716-1.37568-3.45127-.43443-1.09411-.81254-2.01928-1.13434-2.7755-.03218-.06436-.0724-.17297-.12067-.32582-.04827-.15285-.08849-.29364-.12067-.42236-.03218.12872-.0724.26951-.12067.42236-.04827.15285-.08849.26146-.12067.32582z" data-paper-data="{&quot;glyphName&quot;:&quot;A&quot;,&quot;glyphIndex&quot;:14,&quot;word&quot;:2,&quot;line&quot;:2}"/>
      <path d="M396.089 290.53127c-.86885 0-1.67737-.14079-2.42555-.42236-.74818-.28157-1.3958-.6798-1.94285-1.19467-.54706-.51488-.97746-1.1464-1.29121-1.89458-.31375-.74818-.47063-1.59692-.47063-2.54622v-11.36748h1.64117v11.29508c0 .69186.11263 1.31937.33789 1.88251.22526.56315.53901 1.04182.94126 1.43602.40225.3942.8769.69991 1.42395.91712.54706.21721 1.14238.32582 1.78597.32582.6275 0 1.21478-.10861 1.76184-.32582.54706-.21721 1.02171-.52292 1.42395-.91712.40225-.3942.72002-.87287.95332-1.43602.2333-.56315.34995-1.19065.34995-1.88251v-11.29508h1.64117v11.36748c0 .9493-.15688 1.79804-.47063 2.54622-.31375.74818-.74818 1.37971-1.30328 1.89458-.5551.51488-1.20674.9131-1.95492 1.19467-.74818.28157-1.54865.42236-2.40141.42236z" data-paper-data="{&quot;glyphName&quot;:&quot;U&quot;,&quot;glyphIndex&quot;:15,&quot;lastGlyphOfWord&quot;:true,&quot;word&quot;:2,&quot;line&quot;:2}"/>
      <path d="M425.34036 282.44611v6.85428c-.65968.38616-1.40786.68784-2.24454.90505-.83667.21721-1.71357.32582-2.63069.32582-1.35155 0-2.57035-.22124-3.65642-.66371-1.08607-.44247-2.01123-1.04986-2.7755-1.82218-.76427-.77231-1.35557-1.68139-1.77391-2.72723-.41834-1.04584-.6275-2.17213-.6275-3.37887 0-1.30328.23733-2.506.71198-3.60815.47465-1.10216 1.11825-2.05548 1.93078-2.85997.81254-.80449 1.76184-1.432 2.8479-1.88251 1.08607-.45052 2.23247-.67577 3.43921-.67577.82058 0 1.65323.10458 2.49795.31375.84472.20917 1.59692.51488 2.2566.91712l-.82058 1.35155c-.53097-.3218-1.15445-.57521-1.87045-.76025-.716-.18503-1.41189-.27755-2.08766-.27755-.98148 0-1.91067.19308-2.78757.57923-.8769.38616-1.64921.90908-2.31694 1.56876-.66773.65968-1.19467 1.44004-1.58083 2.34107-.38616.90103-.57923 1.85838-.57923 2.87204 0 .96539.17297 1.88251.5189 2.75137.34593.86885.83265 1.6291 1.46015 2.28074.6275.65164 1.38373 1.16651 2.26867 1.54463.88494.37811 1.86642.56717 2.94444.56717.53097 0 1.09009-.06034 1.67737-.18101s1.1464-.30168 1.67737-.54303v-4.34426h-3.71676v-1.44809z" data-paper-data="{&quot;glyphName&quot;:&quot;G&quot;,&quot;glyphIndex&quot;:16,&quot;firstGlyphOfWord&quot;:true,&quot;word&quot;:2,&quot;line&quot;:2}"/>
      <path d="M429.37087 272.33364c.30571.45052.68382 1.00159 1.13434 1.65323.45052.65164.94126 1.35557 1.47222 2.11179.53097.75622 1.07802 1.52854 1.64117 2.31694.56315.7884 1.10618 1.54865 1.6291 2.28074.52292.73209 1.00159 1.40384 1.43602 2.01525.43443.61141.7884 1.1102 1.06193 1.49636.14481-.20917.40627-.58728.78438-1.13434.37811-.54706.82058-1.1826 1.32741-1.90665.50683-.72404 1.05791-1.50842 1.65323-2.35314.59532-.84472 1.17858-1.67335 1.74977-2.48588.57119-.81254 1.1102-1.56876 1.61703-2.26867.50683-.69991.92114-1.27512 1.24294-1.72564v18.00455h-1.7377v-12.28461c0-.14481.00804-.29766.02413-.45856.01609-.1609.02413-.29766.02413-.41029-.27353.38616-.59935.84874-.97746 1.38775-.37811.53901-.77634 1.11422-1.19467 1.72564-.41834.61141-.84472 1.2349-1.27914 1.87045-.43443.63555-.85276 1.25099-1.25501 1.84631-.40225.59532-.77634 1.15042-1.12227 1.6653-.34593.51488-.63153.94126-.85678 1.27914-.22526-.28962-.53097-.70393-.91712-1.24294-.38616-.53901-.80852-1.14238-1.26708-1.81011-.45856-.66773-.93723-1.35959-1.43602-2.07559-.49879-.716-.96137-1.38775-1.38775-2.01525-.42638-.6275-.80449-1.17858-1.13434-1.65323-.32984-.47465-.55108-.80047-.66371-.97746 0 .11263.01207.24939.0362.41029.02413.1609.0362.31375.0362.45856v12.28461h-1.64117z" data-paper-data="{&quot;glyphName&quot;:&quot;M&quot;,&quot;glyphIndex&quot;:17,&quot;word&quot;:2,&quot;line&quot;:2}"/>
      <path d="M452.68507 274.60231v6.34745h2.89617c1.04584 0 1.83424-.30973 2.36521-.92919.53097-.61946.79645-1.40384.79645-2.35314 0-1.07802-.3218-1.85838-.96539-2.34107-.64359-.4827-1.48027-.72404-2.51002-.72404zm0 7.7714v6.46812h2.94444c.54706 0 1.06193-.06838 1.54463-.20515.4827-.13676.90505-.33789 1.26708-.60337.36202-.26548.64762-.59935.85678-1.00159.20917-.40225.31375-.86885.31375-1.39982 0-.57923-.12067-1.07802-.36202-1.49636-.24135-.41834-.56717-.75622-.97746-1.01366-.41029-.25744-.8769-.44649-1.39982-.56717-.52292-.12067-1.05791-.18101-1.60496-.18101zm-1.64116 7.96448v-17.23224h4.03051c.80449 0 1.53256.08045 2.1842.24135.65164.1609 1.21076.41834 1.67737.77231.46661.35398.82461.81254 1.074 1.37568.24939.56315.37409 1.24696.37409 2.05146 0 .46661-.04827.9131-.14481 1.33948-.09654.42638-.24939.82058-.45856 1.1826-.20917.36202-.4827.67577-.82058.94126-.33789.26548-.75622.47063-1.25501.61544.45052.09654.88896.24939 1.31535.45856.42638.20917.80449.4827 1.13434.82058.32984.33789.59532.74416.79645 1.21881.20112.47465.30168 1.02573.30168 1.65323 0 .77231-.15285 1.44809-.45856 2.02732-.30571.57923-.71198 1.05389-1.21881 1.42395-.50683.37007-1.09009.64762-1.74977.83265-.65968.18503-1.3435.27755-2.05146.27755z" data-paper-data="{&quot;glyphName&quot;:&quot;B&quot;,&quot;glyphIndex&quot;:18,&quot;word&quot;:2,&quot;line&quot;:2}"/>
      <path d="M465.06622 290.33819v-17.23224h1.6653v7.7714h9.79872v-7.7714h1.68944V278.30699c0 1.08607-.00402 2.2204-.01207 3.40301-.00804 1.1826-.01207 2.31694-.01207 3.40301 0 1.08607-.00402 2.08766-.01207 3.00478-.00804.91712-.01207 1.65726-.01207 2.2204h-1.64117v-7.89208h-9.79872v7.89208z" data-paper-data="{&quot;glyphName&quot;:&quot;H&quot;,&quot;glyphIndex&quot;:19,&quot;lastGlyphOfWord&quot;:true,&quot;word&quot;:2,&quot;line&quot;:2,&quot;lastGlyphOfSecondLine&quot;:true}"/>
    </g>
    <g fill-rule="evenodd" data-paper-data="{&quot;fillRule&quot;:&quot;evenodd&quot;,&quot;fillRuleOriginal&quot;:&quot;evenodd&quot;,&quot;isIcon&quot;:true,&quot;iconStyle&quot;:&quot;standalone&quot;,&quot;selectedEffects&quot;:{&quot;container&quot;:&quot;&quot;,&quot;transformation&quot;:&quot;&quot;,&quot;pattern&quot;:&quot;&quot;},&quot;bounds&quot;:{&quot;x&quot;:71.78031977184487,&quot;y&quot;:171.38074337715346,&quot;width&quot;:127.23851324569303,&quot;height&quot;:127.23851324569307},&quot;iconType&quot;:&quot;icon&quot;,&quot;rawIconId&quot;:&quot;721733&quot;,&quot;isDetailed&quot;:false,&quot;suitableAsStandaloneIcon&quot;:true}">
      <path d="M135.39958 298.61926 71.78032 235l63.61926-63.61926L199.01884 235zM77.40267 235l57.9969 57.9969L193.39647 235l-56.0088-56.0088v58.99096h-3.9762V178.9912z" data-paper-data="{&quot;isPathIcon&quot;:true}"/>
    </g>
  </g>
</svg>
