<svg xmlns="http://www.w3.org/2000/svg" viewBox="102 81.32 136 87.36">
  <g fill="#fa3913">
    <g>
      <g mask="url(#a)" transform="translate(102 81.322)">
        <path fill="#fefefe" d="m0 0 22.86 12v49.2L0 73.2V12" data-gra="graph-name"></path>
        <path fill="#fefefe" d="M19.62 22.62V16.2H3.24v6.42h4.68v29.16H3v6.42h16.86v-6.42h-4.92V22.62Z" data-gra="path-name"></path>
      </g>
      <path d="M135.88 132.502v-34.98h-7.02v42h22.56v-7.02ZM181.4 139.522h7.56l-16.8-43.2-16.74 43.2h7.56l1.8-4.86h14.76Zm-9.24-25.5 5.1 14.58h-10.2ZM226.98 139.522v-7.02H205.5l21.48-34.98h-32.22v7.02h19.74l-21.54 34.98ZM230.98 139.522H238v-42h-7.02Z"></path>
    </g>
    <g fill="#fefefe">
      <path d="M107 164.102h7.22v1H107zM225.78 164.102H233v1h-7.22zM117.22 160.668v7.87h1v-7.87Zm3.16 0v7.87h.94v-4.12c0-.41-.01-.83-.04-1.24l-.09-1.22h.05l.85 1.62 2.86 4.96h1.03v-7.87h-.95v4.07c0 .41.02.83.04 1.26.03.43.06.84.08 1.24h-.05l-.85-1.63-2.84-4.94Zm7.76 0v7.87h.95v-4.12c0-.41-.02-.83-.04-1.24l-.09-1.22h.04l.86 1.62 2.85 4.96h1.03v-7.87h-.94v4.07c0 .41.01.83.04 1.26.03.43.05.84.08 1.24h-.05l-.85-1.63-2.85-4.94Zm7.76 0v7.87h4.66v-.85h-3.66v-2.86h2.99v-.85h-2.99v-2.47h3.54v-.84Zm6.33 0v7.87h.95v-4.12c0-.41-.02-.83-.05-1.24-.02-.41-.05-.82-.09-1.22h.05l.85 1.62 2.86 4.96h1.03v-7.87h-.95v4.07c0 .41.02.83.05 1.26.02.43.05.84.07 1.24h-.04l-.86-1.63-2.84-4.94Zm11.11 4.67h-2.36l.37-1.2c.14-.44.28-.88.41-1.32.12-.43.25-.88.37-1.34h.05c.12.46.25.91.38 1.34.13.44.26.88.41 1.32Zm.25.8.75 2.4h1.06l-2.66-7.87h-1.13l-2.66 7.87h1.02l.75-2.4Zm2.71-5.47v4.62c0 .63.08 1.16.22 1.59.14.44.34.79.59 1.05.26.27.56.46.9.58.35.12.73.17 1.13.17.4 0 .77-.05 1.11-.17.35-.12.64-.31.9-.58.25-.26.45-.61.59-1.05.14-.43.22-.96.22-1.59v-4.62H161v4.64c0 .47-.05.87-.15 1.19-.09.32-.23.58-.39.77-.17.19-.37.33-.59.41-.23.09-.47.13-.73.13s-.5-.04-.72-.13c-.23-.08-.42-.22-.59-.41-.16-.19-.29-.45-.39-.77-.09-.32-.14-.72-.14-1.19v-4.64Zm7.68 6.15-.6.7c.35.36.76.64 1.23.85.47.21.98.31 1.53.31.42 0 .79-.05 1.12-.17.33-.12.61-.28.84-.48.23-.2.41-.44.53-.71.13-.28.19-.57.19-.88 0-.29-.04-.54-.13-.76-.08-.22-.19-.41-.34-.58-.14-.16-.31-.31-.51-.43s-.42-.23-.64-.33l-1.12-.48c-.16-.06-.31-.13-.46-.21-.16-.08-.3-.16-.42-.26-.13-.1-.23-.22-.31-.35-.08-.13-.11-.3-.11-.49 0-.36.13-.64.4-.84.27-.21.62-.31 1.06-.31.37 0 .7.07.99.2.29.13.56.31.8.54l.54-.64a3.27 3.27 0 0 0-1.02-.71c-.4-.18-.84-.27-1.31-.27-.36 0-.69.06-.99.16-.3.1-.56.25-.78.44-.22.19-.39.41-.52.66-.12.26-.18.54-.18.83 0 .29.05.54.14.76.1.22.22.41.37.57.16.16.33.3.52.41.19.11.38.21.56.29l1.13.49c.19.09.36.17.52.25.16.08.3.17.41.27.12.1.21.22.28.36.07.14.1.31.1.51 0 .39-.14.7-.43.93-.29.24-.69.36-1.21.36-.41 0-.81-.09-1.19-.27-.38-.18-.71-.42-.99-.72Zm6.39-6.15v7.87h2.51c.44 0 .84-.05 1.21-.14.37-.1.68-.24.95-.44.26-.19.46-.43.61-.72.14-.28.21-.62.21-1 0-.55-.16-.98-.48-1.29-.32-.31-.76-.51-1.34-.6v-.05c.46-.12.81-.33 1.03-.65.23-.32.34-.67.34-1.06 0-.35-.07-.64-.2-.88a1.59 1.59 0 0 0-.55-.6c-.24-.15-.52-.26-.85-.33-.34-.08-.7-.11-1.1-.11Zm2.16 3.36h-1.17v-2.57h1.22c.61 0 1.07.09 1.38.28.31.19.46.5.46.93 0 .44-.14.78-.43 1.01-.3.23-.78.35-1.46.35Zm.2 3.72h-1.37v-2.98h1.37c.7 0 1.23.12 1.6.34.37.23.55.59.55 1.08 0 .53-.19.93-.56 1.18-.38.25-.91.38-1.59.38Zm8.04-2.41h-2.36l.37-1.2c.14-.44.28-.88.41-1.32.13-.43.25-.88.37-1.34h.05c.13.46.25.91.38 1.34.13.44.27.88.41 1.32Zm.25.8.75 2.4h1.07l-2.67-7.87h-1.13l-2.66 7.87h1.02l.76-2.4Zm2.72-5.47v4.62c0 .63.07 1.16.21 1.59.15.44.34.79.6 1.05.25.27.55.46.9.58.34.12.72.17 1.12.17.4 0 .77-.05 1.11-.17.35-.12.65-.31.9-.58.25-.26.45-.61.59-1.05.15-.43.22-.96.22-1.59v-4.62h-.96v4.64c0 .47-.05.87-.15 1.19-.09.32-.22.58-.39.77-.17.19-.37.33-.59.41-.22.09-.47.13-.73.13s-.5-.04-.72-.13c-.23-.08-.42-.22-.58-.41-.17-.19-.3-.45-.39-.77-.1-.32-.15-.72-.15-1.19v-4.64Zm9.74 3.93c0 .64.09 1.22.26 1.73.18.5.42.93.74 1.28.31.35.68.61 1.11.8.43.18.91.27 1.43.27.53 0 1-.08 1.42-.25.42-.18.76-.39 1.02-.66v-3.31h-2.58v.83h1.66v2.05c-.16.14-.36.26-.61.34-.26.09-.52.13-.8.13-.43 0-.8-.08-1.12-.23-.33-.15-.6-.37-.82-.65-.22-.28-.39-.62-.5-1.01-.12-.4-.18-.84-.18-1.34 0-.49.06-.93.19-1.32.12-.39.3-.73.52-1 .22-.28.5-.49.82-.64.32-.15.68-.22 1.08-.22s.73.07.99.21c.26.14.49.31.69.52l.56-.63c-.23-.24-.53-.47-.89-.67-.37-.2-.82-.31-1.37-.31-.52 0-1.01.1-1.45.29-.44.18-.82.45-1.14.81-.33.35-.58.78-.76 1.28-.18.5-.27 1.07-.27 1.7Zm7.86-3.93v7.87h.92v-4.33c0-.35-.01-.74-.04-1.17-.04-.42-.06-.81-.09-1.16h.05l.62 1.75 1.53 4.12h.56l1.51-4.12.64-1.75h.05c-.03.35-.06.74-.09 1.16-.03.43-.04.82-.04 1.17v4.33h.94v-7.87h-1.17l-1.51 4.22-.56 1.61h-.04l-.58-1.61-1.52-4.22Zm8.72 0v7.87h2.51c.44 0 .85-.05 1.21-.14.37-.1.69-.24.95-.44.27-.19.47-.43.61-.72.15-.28.22-.62.22-1 0-.55-.16-.98-.48-1.29-.32-.31-.77-.51-1.34-.6v-.05c.46-.12.8-.33 1.03-.65.22-.32.33-.67.33-1.06 0-.35-.06-.64-.19-.88-.14-.25-.32-.45-.56-.6-.23-.15-.52-.26-.85-.33-.33-.08-.7-.11-1.1-.11Zm2.16 3.36h-1.16v-2.57h1.21c.62 0 1.08.09 1.39.28.31.19.46.5.46.93 0 .44-.15.78-.44 1.01-.29.23-.78.35-1.46.35Zm.21 3.72h-1.37v-2.98h1.37c.69 0 1.23.12 1.59.34.37.23.56.59.56 1.08 0 .53-.19.93-.57 1.18-.37.25-.9.38-1.58.38Zm4.69-7.08v7.87h1v-3.71h3.66v3.71h1v-7.87h-1v3.3h-3.66v-3.3Z"></path>
    </g>
  </g>
  <mask id="a">
    <path fill="#fff" d="m0 0 22.86 12v49.2L0 73.2V12"></path>
    <path d="M19.62 22.62V16.2H3.24v6.42h4.68v29.16H3v6.42h16.86v-6.42h-4.92V22.62Z"></path>
  </mask>
</svg>
